* Description

The lion says solve this challenge. You seem to have a good track record at doing so.

* Solution

We get a =mp4= media file, let's use =ffmpeg= to parse it.

#+begin_src bash
Input #0, mov,mp4,m4a,3gp,3g2,mj2, from 'lion.mp4':
  Metadata:
    major_brand     : isom
    minor_version   : 512
    compatible_brands: isomiso2avc1mp41
    encoder         : Lavf61.7.100
  Duration: 00:00:04.95, start: 0.000000, bitrate: 1732 kb/s
  Stream #0:0[0x1](und): Video: h264 (High) (avc1 / 0x31637661), yuv420p(progressive), 1280x720 [SAR 1:1 DAR 16:9], 1476 kb/s, 30 fps, 30 tbr, 15360 tbn (default)
      Metadata:
        handler_name    : VideoHandler
        vendor_id       : [0][0][0][0]
  Stream #0:1[0x2](und): Audio: aac (LC) (mp4a / 0x6134706D), 48000 Hz, stereo, fltp, 128 kb/s (default)
      Metadata:
        handler_name    : SoundHandler
        vendor_id       : [0][0][0][0]
  Stream #0:2[0x3](und): Audio: aac (LC) (mp4a / 0x6134706D), 22050 Hz, stereo, fltp, 121 kb/s
      Metadata:
        handler_name    : SoundHandler
        vendor_id       : [0][0][0][0]
#+end_src

We can see there're 2 =audio stream= within this file, let's extract it out. Then, I load it into
=Audacity=, with the =spectrogram view= I discover this interesting payload, the other audio don't has
useful information.

[[file:2025-04-28_22-09.png]]

After the execute this payload, we get flag:

#+begin_src bash
ctf ❯ cat result.txt
 ./roar
[*] Initializing beacon...
[*] Beacon attempt 1: phoning home...
[-] No response from C2 server.
[*] Beacon attempt 2: phoning home...
[-] No response from C2 server.
[*] Beacon attempt 3: phoning home...
[-] No response from C2 server.
[*] Beacon attempt 4: phoning home...
[-] No response from C2 server.
[*] Beacon attempt 5: phoning home...
[-] No response from C2 server.
[*] Beacon attempt 6: phoning home...
[-] No response from C2 server.
[*] Beacon attempt 7: phoning home...
[-] No response from C2 server.
[*] Beacon attempt 8: phoning home...
[-] No response from C2 server.
[*] Beacon attempt 9: phoning home...
[+] Beacon successfully reached C2 on attempt 9.
[*] Downloading payload...
[*] Decrypting response...
[+] Flag received:
CIT{wh3n_th3_l10n_sp34k5_y0u_l1st3n}
#+end_src

